# xmcd
# 
# Track frame offsets:
#     150
#     22568
#     37265
#     79073
#     88265
#     99288
#     119333
#     131935
#     143488
# 
# Disc length: 2080
# 
# Revision: 2
# Processed by: cddbd v1.5.2PL0 Copyright (c) Steve Scherf et al.
# Submitted via: fre:ac v1.0.31
# 
DISCID=6e081e09
DTITLE=Columbia Blues - Roosevelt Sykes The Honeydripper
DYEAR=0
DGENRE=Blues
TTITLE0=Miss Ida B.
TTITLE1=Mislead Mother
TTITLE2=Yes Lawd
TTITLE3=I Hate to be Alone
TTITLE4=Jailbait
TTITLE5=Lonely Day
TTITLE6=Satellite Baby
TTITLE7=Pocketful of Money
TTITLE8=She Ain't for Nobody
EXTD=Roosevelt Sykes - vocals, piano\nKing Curtis - tenor saxophone\nRobert Banks - organ\nLeonard Gaskin - bass\nBelton Evans - drums\nSupervision by Esmond Edwards\nRecorded in Englewood Cliffs, NJ - September 14,1960.\nRecording engineer - Rudy Van Geld
EXTD=er\nDigital remastering, 1993 - Phil De Lancie (Fantasy Studios, Berkeley)
EXTT0=
EXTT1=
EXTT2=
EXTT3=
EXTT4=
EXTT5=
EXTT6=
EXTT7=
EXTT8=
PLAYORDER=
